<?xml version="1.0" encoding="UTF-8"?>
<svg fill="none" viewBox="0 0 70 70" xmlns="http://www.w3.org/2000/svg">
<path d="m30.013 11.258-24.704 41.242c-0.50935 0.882-0.77885 1.8821-0.7817 2.9006-0.00285 1.0186 0.26105 2.0202 0.76544 2.9051 0.5044 0.8849 1.2317 1.6223 2.1096 2.1388 0.87787 0.5166 1.8757 0.7943 2.8942 0.8055h49.408c1.0185-0.0112 2.0163-0.2889 2.8942-0.8055 0.8779-0.5165 1.6052-1.2539 2.1096-2.1388s0.7683-1.8865 0.7654-2.9051c-0.0028-1.0185-0.2723-2.0186-0.7817-2.9006l-24.704-41.242c-0.5199-0.8572-1.252-1.5659-2.1256-2.0578-0.8737-0.49185-1.8593-0.75024-2.8619-0.75024-1.0025 0-1.9882 0.25839-2.8618 0.75024-0.8736 0.49186-1.6057 1.2006-2.1257 2.0578z" stroke="#D04F47" stroke-linecap="round" stroke-linejoin="round" stroke-width="4"/>
<path d="m35 26.25v11.667" stroke="#D04F47" stroke-linecap="round" stroke-linejoin="round" stroke-width="4"/>
<path d="m35 49.583h0.0292" stroke="#D04F47" stroke-linecap="round" stroke-linejoin="round" stroke-width="4"/>
</svg>
