<?xml version="1.0" standalone="no"?>
<!DOCTYPE svg PUBLIC "-//W3C//DTD SVG 20010904//EN"
 "http://www.w3.org/TR/2001/REC-SVG-20010904/DTD/svg10.dtd">
<svg version="1.0" xmlns="http://www.w3.org/2000/svg"
 width="260.000000pt" height="260.000000pt" viewBox="0 0 260.000000 260.000000"
 preserveAspectRatio="xMidYMid meet">
<metadata>
Created by potrace 1.14, written by Peter Selinger 2001-2017
</metadata>
<g transform="translate(0.000000,260.000000) scale(0.100000,-0.100000)"
fill="#000000" stroke="none">
<path d="M1172 2108 c-6 -35 -14 -85 -18 -113 -8 -58 -20 -85 -37 -85 -7 0
-41 -14 -75 -30 -35 -17 -69 -27 -75 -23 -7 4 -50 34 -97 68 -47 34 -90 64
-96 68 -6 3 -47 -31 -92 -76 l-82 -82 74 -103 73 -103 -33 -81 c-18 -45 -39
-85 -46 -88 -7 -4 -35 -11 -63 -14 -27 -4 -78 -12 -112 -18 l-63 -10 0 -118 0
-118 63 -10 c34 -6 85 -14 112 -18 69 -9 80 -17 94 -66 7 -24 21 -58 32 -76
22 -38 24 -33 -46 -127 -97 -131 -97 -109 -2 -203 l82 -82 103 74 103 73 81
-33 c45 -18 85 -39 88 -46 4 -7 11 -35 14 -63 4 -27 12 -78 18 -112 l10 -63
118 0 118 0 10 63 c6 34 14 85 18 112 9 69 17 80 66 94 24 7 59 21 79 31 l36
19 103 -75 104 -75 82 82 c46 46 80 87 77 93 -4 6 -34 49 -68 96 -81 112 -78
106 -62 132 8 13 23 46 32 73 23 63 33 71 98 79 28 4 80 12 115 17 l62 11 0
118 0 118 -62 10 c-35 6 -85 14 -113 18 -58 8 -85 20 -85 37 0 7 -14 41 -30
75 -17 35 -27 69 -23 75 3 7 34 50 68 97 34 47 64 90 68 96 3 6 -31 47 -77 93
l-82 82 -104 -76 c-107 -77 -115 -81 -124 -66 -3 4 -34 19 -68 31 -35 13 -68
29 -74 37 -6 7 -14 37 -18 66 -4 28 -12 80 -17 115 l-11 62 -118 0 -118 0 -10
-62z m304 -422 c77 -35 167 -125 207 -205 30 -62 32 -71 32 -181 0 -110 -2
-119 -32 -180 -41 -83 -120 -162 -203 -203 -61 -30 -70 -32 -180 -32 -111 0
-118 1 -185 34 -87 43 -153 110 -197 198 -32 65 -33 73 -33 183 0 111 1 118
34 184 101 205 352 296 557 202z"/>
<path d="M1371 1355 l-117 -115 -64 65 c-36 36 -75 68 -88 71 -35 10 -72 -20
-72 -59 0 -28 14 -47 99 -131 77 -76 105 -98 126 -98 22 0 57 29 171 143 80
79 147 154 150 167 9 35 -20 72 -58 72 -26 0 -49 -18 -147 -115z"/>
</g>
</svg>
